<svg width="19" height="23" viewBox="0 0 19 23" fill="none" xmlns="http://www.w3.org/2000/svg">
<g clip-path="url(#clip0_79_309)">
<path d="M6.08003 7.30881H7.44803V18.3488H6.08003V7.30881ZM8.81603 7.30881H10.184V18.3488H8.81603V7.30881ZM11.552 7.30881H12.92V18.3488H11.552V7.30881ZM0.608032 3.16881H18.392V4.54881H0.608032V3.16881ZM12.92 3.16881H11.552V2.47881C11.552 2.06481 11.2784 1.78881 10.868 1.78881H8.13203C7.72163 1.78881 7.44803 2.06481 7.44803 2.47881V3.16881H6.08003V2.47881C6.08003 1.30581 6.96923 0.408813 8.13203 0.408813H10.868C12.0308 0.408813 12.92 1.30581 12.92 2.47881V3.16881Z" fill="#8C8C8C"/>
<path d="M13.6041 22.4888H5.39607C4.30167 22.4888 3.34407 21.5918 3.20727 20.4878L1.97607 3.9278L3.34407 3.78979L4.57527 20.3498C4.57527 20.7638 4.98567 21.1088 5.39607 21.1088H13.6041C14.0145 21.1088 14.3565 20.7638 14.4249 20.3498L15.6561 3.78979L17.0241 3.9278L15.7929 20.4878C15.6561 21.5918 14.6985 22.4888 13.6041 22.4888Z" fill="#8C8C8C"/>
</g>
<defs>
<clipPath id="clip0_79_309">
<rect width="19" height="23" fill="white"/>
</clipPath>
</defs>
</svg>
