<svg width="23" height="23" viewBox="0 0 23 23" fill="none" xmlns="http://www.w3.org/2000/svg">
<g clip-path="url(#clip0_79_366)">
<path d="M0.70029 22.9208H22.2947C22.4642 22.9208 22.6267 22.8535 22.7465 22.7337C22.8663 22.6138 22.9336 22.4513 22.9336 22.2819C22.9336 22.1125 22.8663 21.95 22.7465 21.8301C22.6267 21.7103 22.4642 21.643 22.2947 21.643H0.70029C0.530846 21.643 0.368342 21.7103 0.248527 21.8301C0.128713 21.95 0.0614014 22.1125 0.0614014 22.2819C0.0614014 22.4513 0.128713 22.6138 0.248527 22.7337C0.368342 22.8535 0.530846 22.9208 0.70029 22.9208ZM8.57396 18.1189C9.11369 17.9679 9.60616 17.682 10.0051 17.2883L22.1951 5.09835C22.6125 4.67925 22.8469 4.11182 22.8469 3.52029C22.8469 2.92876 22.6125 2.36133 22.1951 1.94224L20.994 0.753902C20.5689 0.347895 20.0037 0.121338 19.4159 0.121338C18.8281 0.121338 18.2629 0.347895 17.8378 0.753902L5.64785 12.9311C5.25345 13.3274 4.97125 13.8213 4.83007 14.3622L3.88451 17.8889C3.83965 18.05 3.8385 18.2201 3.88116 18.3818C3.92383 18.5435 4.00878 18.6909 4.12729 18.8089C4.30815 18.9867 4.5509 19.0875 4.80451 19.09L8.57396 18.1189ZM9.09785 16.3811C8.86228 16.6209 8.5666 16.7931 8.24173 16.8795L7.00229 17.2117L5.72451 15.9339L6.05673 14.6945C6.14611 14.3708 6.3178 14.0759 6.55507 13.8383L7.04062 13.3656L9.5834 15.9083L9.09785 16.3811ZM10.4906 15.0011L7.94785 12.4583L16.5473 3.8589L19.0901 6.40168L10.4906 15.0011ZM21.2878 4.2039L19.9973 5.49446L17.4545 2.95168L18.7451 1.64835C18.8339 1.55918 18.9394 1.48843 19.0556 1.44015C19.1718 1.39187 19.2964 1.36702 19.4223 1.36702C19.5481 1.36702 19.6727 1.39187 19.789 1.44015C19.9052 1.48843 20.0107 1.55918 20.0995 1.64835L21.2878 2.84946C21.4661 3.0298 21.566 3.27313 21.566 3.52668C21.566 3.78023 21.4661 4.02356 21.2878 4.2039Z" fill="#8C8C8C"/>
</g>
<defs>
<clipPath id="clip0_79_366">
<rect width="23" height="23" fill="white"/>
</clipPath>
</defs>
</svg>
